# xmcd
#
# Track frame offsets:
#   150
#   18254
#   33327
#   49922
#   63057
#   79229
#   97393
#   117782
#   132937
#   148382
#   162729
#   176835
#   191394
#   205612
#
# Disc length: 2901 seconds
#
# Revision: 0
# Processed by: cddbd v1.5.1PL0 Copyright (c) Steve Scherf et al.
# Submitted via: uFREEDB ActiveX Control 1.5
#
DISCID=c90b530e
DTITLE=Chiãozinho e Xororo/Rio Negro e Solimões e Roberta Miranda - Amor Sertanejo
DYEAR=1900
DGENRE=Country
TTITLE0=Eu e o Sabia
TTITLE1=Temporal de Lagrimas
TTITLE2=Outra Vez
TTITLE3=Saudade pulou no peito
TTITLE4=Coração Sertanejo
TTITLE5=Brincar de ser feliz
TTITLE6=Além da Cama
TTITLE7=Alô
TTITLE8=Cadê você
TTITLE9=Peão apaixonado
TTITLE10=Fio de Cabelo
TTITLE11=Vá com Deus
TTITLE12=No pique do Rodeio
TTITLE13=Atração Fatal
EXTD=
EXTT0=
EXTT1=
EXTT2=
EXTT3=
EXTT4=
EXTT5=
EXTT6=
EXTT7=
EXTT8=
EXTT9=
EXTT10=
EXTT11=
EXTT12=
EXTT13=
PLAYORDER=
